<?xml version="1.0" encoding="UTF-8"?>
<svg xmlns="http://www.w3.org/2000/svg" xmlns:xlink="http://www.w3.org/1999/xlink" width="375pt" height="374.999991pt" viewBox="0 0 375 374.999991" version="1.2">
<defs>
<clipPath id="clip1">
  <path d="M 15.746094 18.308594 L 359.246094 18.308594 L 359.246094 335.792969 L 15.746094 335.792969 Z M 15.746094 18.308594 "/>
</clipPath>
<clipPath id="clip2">
  <path d="M 152.800781 167.871094 L 264.03125 167.871094 L 264.03125 207.570312 L 152.800781 207.570312 Z M 152.800781 167.871094 "/>
</clipPath>
<clipPath id="clip3">
  <path d="M 249.382812 171.5625 C 251.742188 167.84375 256.644531 166.757812 260.335938 169.113281 C 264.0625 171.46875 265.148438 176.371094 262.789062 180.0625 C 252.019531 196.964844 231.257812 207.570312 208.417969 207.570312 C 185.574219 207.570312 164.8125 196.964844 154.042969 180.0625 C 151.683594 176.371094 152.769531 171.46875 156.496094 169.113281 C 160.1875 166.757812 165.09375 167.84375 167.449219 171.5625 C 175.210938 183.722656 190.851562 191.691406 208.417969 191.691406 C 225.980469 191.691406 241.625 183.722656 249.382812 171.5625 Z M 249.382812 171.5625 "/>
</clipPath>
<clipPath id="clip4">
  <path d="M 105.132812 88.472656 L 152.800781 88.472656 L 152.800781 136.113281 L 105.132812 136.113281 Z M 105.132812 88.472656 "/>
</clipPath>
<clipPath id="clip5">
  <path d="M 128.96875 136.113281 C 142.125 136.113281 152.800781 125.445312 152.800781 112.292969 C 152.800781 99.144531 142.125 88.472656 128.96875 88.472656 C 115.808594 88.472656 105.132812 99.144531 105.132812 112.292969 C 105.132812 125.445312 115.808594 136.113281 128.96875 136.113281 Z M 128.96875 136.113281 "/>
</clipPath>
<clipPath id="clip6">
  <path d="M 264.03125 88.472656 L 311.699219 88.472656 L 311.699219 136.113281 L 264.03125 136.113281 Z M 264.03125 88.472656 "/>
</clipPath>
<clipPath id="clip7">
  <path d="M 287.863281 136.113281 C 301.023438 136.113281 311.699219 125.445312 311.699219 112.292969 C 311.699219 99.144531 301.023438 88.472656 287.863281 88.472656 C 274.707031 88.472656 264.03125 99.144531 264.03125 112.292969 C 264.03125 125.445312 274.707031 136.113281 287.863281 136.113281 Z M 287.863281 136.113281 "/>
</clipPath>
</defs>
<g id="surface1">
<rect x="0" y="0" width="375" height="374.999991" style="fill:rgb(100%,100%,100%);fill-opacity:1;stroke:none;"/>
<rect x="0" y="0" width="375" height="374.999991" style="fill:rgb(100%,100%,100%);fill-opacity:1;stroke:none;"/>
<rect x="0" y="0" width="375" height="374.999991" style="fill:rgb(100%,100%,100%);fill-opacity:1;stroke:none;"/>
<g clip-path="url(#clip1)" clip-rule="nonzero">
<path style=" stroke:none;fill-rule:nonzero;fill:rgb(21.179199%,100%,64.709473%);fill-opacity:1;" d="M 112.046875 323.488281 C 74.964844 314.269531 44.5625 287.371094 30.898438 251.679688 C -79.15625 -35.390625 450.179688 -69.066406 345.828125 214.921875 C 299.414062 341.105469 219.910156 350.355469 112.046875 323.488281 "/>
</g>
<g clip-path="url(#clip2)" clip-rule="nonzero">
<g clip-path="url(#clip3)" clip-rule="nonzero">
<path style=" stroke:none;fill-rule:nonzero;fill:rgb(0%,0%,0%);fill-opacity:1;" d="M 113.078125 247.273438 L 303.753906 247.273438 L 303.753906 128.171875 L 113.078125 128.171875 Z M 113.078125 247.273438 "/>
</g>
</g>
<g clip-path="url(#clip4)" clip-rule="nonzero">
<g clip-path="url(#clip5)" clip-rule="nonzero">
<path style=" stroke:none;fill-rule:nonzero;fill:rgb(0%,0%,0%);fill-opacity:1;" d="M 65.410156 175.8125 L 192.527344 175.8125 L 192.527344 48.773438 L 65.410156 48.773438 Z M 65.410156 175.8125 "/>
</g>
</g>
<g clip-path="url(#clip6)" clip-rule="nonzero">
<g clip-path="url(#clip7)" clip-rule="nonzero">
<path style=" stroke:none;fill-rule:nonzero;fill:rgb(0%,0%,0%);fill-opacity:1;" d="M 224.304688 175.8125 L 351.425781 175.8125 L 351.425781 48.773438 L 224.304688 48.773438 Z M 224.304688 175.8125 "/>
</g>
</g>
</g>
</svg>
